<svg width="346" height="133" viewBox="0 0 346 133" fill="none" xmlns="http://www.w3.org/2000/svg">
<rect width="346" height="133" rx="8" fill="black"/>
<path d="M57 61.7537C56.508 61.7537 56.0209 61.8506 55.5664 62.0389C55.1119 62.2272 54.6989 62.5031 54.351 62.851C54.0031 63.1988 53.7272 63.6118 53.5389 64.0663C53.3506 64.5209 53.2537 65.008 53.2537 65.5C53.2537 65.9919 53.3506 66.4791 53.5389 66.9336C53.7272 67.3881 54.0031 67.8011 54.351 68.149C54.6989 68.4968 55.1119 68.7728 55.5664 68.9611C56.0209 69.1493 56.508 69.2462 57 69.2462C57.9936 69.2462 58.9464 68.8515 59.649 68.149C60.3516 67.4464 60.7463 66.4935 60.7463 65.5C60.7463 64.5064 60.3516 63.5535 59.649 62.851C58.9464 62.1484 57.9936 61.7537 57 61.7537ZM65.4375 63.625C64.6916 63.625 63.9762 63.9213 63.4488 64.4487C62.9213 64.9762 62.625 65.6916 62.625 66.4375C62.625 67.1834 62.9213 67.8988 63.4488 68.4262C63.9762 68.9537 64.6916 69.25 65.4375 69.25C66.1834 69.25 66.8988 68.9537 67.4262 68.4262C67.9537 67.8988 68.25 67.1834 68.25 66.4375C68.25 65.6916 67.9537 64.9762 67.4262 64.4487C66.8988 63.9213 66.1834 63.625 65.4375 63.625ZM48.5625 63.625C47.8166 63.625 47.1012 63.9213 46.5738 64.4487C46.0463 64.9762 45.75 65.6916 45.75 66.4375C45.75 67.1834 46.0463 67.8988 46.5738 68.4262C47.1012 68.9537 47.8166 69.25 48.5625 69.25C49.3084 69.25 50.0238 68.9537 50.5512 68.4262C51.0787 67.8988 51.375 67.1834 51.375 66.4375C51.375 65.6916 51.0787 64.9762 50.5512 64.4487C50.0238 63.9213 49.3084 63.625 48.5625 63.625ZM51.375 72.9868C51.3785 72.4918 51.5775 72.0183 51.9288 71.6695C52.28 71.3207 52.755 71.125 53.25 71.125H60.75C61.2473 71.125 61.7242 71.3225 62.0758 71.6741C62.4275 72.0258 62.625 72.5027 62.625 73V78.625C62.6255 79.2151 62.5331 79.8017 62.3512 80.3631C61.9361 81.6357 61.0808 82.7185 59.9391 83.4173C58.7973 84.116 57.4439 84.3848 56.1218 84.1755C54.7997 83.9661 53.5955 83.2923 52.7255 82.275C51.8555 81.2577 51.3767 79.9636 51.375 78.625V72.9868ZM49.5 73C49.5 72.3156 49.6819 71.6762 50.0025 71.125H45.75C45.2527 71.125 44.7758 71.3225 44.4242 71.6741C44.0725 72.0258 43.875 72.5027 43.875 73V77.6875C43.8747 78.4549 44.0629 79.2107 44.423 79.8884C44.7831 80.5661 45.3041 81.1451 45.9402 81.5744C46.5763 82.0037 47.3081 82.2703 48.0714 82.3507C48.8346 82.4311 49.6059 82.3229 50.3175 82.0356C49.779 80.9787 49.4988 79.8092 49.5 78.6231V73ZM64.5 73V78.625C64.5 79.8531 64.2056 81.0118 63.6825 82.0356C64.3941 82.3229 65.1654 82.4311 65.9286 82.3507C66.6919 82.2703 67.4237 82.0037 68.0598 81.5744C68.6959 81.1451 69.2169 80.5661 69.577 79.8884C69.9371 79.2107 70.1253 78.4549 70.125 77.6875V73C70.125 72.5027 69.9275 72.0258 69.5758 71.6741C69.2242 71.3225 68.7473 71.125 68.25 71.125H63.9975C64.3162 71.6762 64.5 72.3156 64.5 73Z" fill="white"/>
<path d="M84.1458 54.2083C83.5657 54.2083 83.0093 53.9779 82.599 53.5676C82.1888 53.1574 81.9583 52.601 81.9583 52.0208C81.9583 51.4407 82.1888 50.8843 82.599 50.474C83.0093 50.0638 83.5657 49.8333 84.1458 49.8333C84.726 49.8333 85.2824 50.0638 85.6926 50.474C86.1029 50.8843 86.3333 51.4407 86.3333 52.0208C86.3333 52.601 86.1029 53.1574 85.6926 53.5676C85.2824 53.9779 84.726 54.2083 84.1458 54.2083ZM84.1458 54.2083V65.1458C84.1458 67.1817 84.1458 68.1996 83.895 69.025C83.6169 69.9433 83.1166 70.7787 82.4384 71.4574C81.7602 72.1361 80.9251 72.637 80.0071 72.9158C79.1788 73.1667 78.1608 73.1667 76.125 73.1667M30.1875 92.125C30.7677 92.125 31.3241 92.3555 31.7343 92.7657C32.1445 93.1759 32.375 93.7323 32.375 94.3125C32.375 94.8927 32.1445 95.4491 31.7343 95.8593C31.3241 96.2695 30.7677 96.5 30.1875 96.5C29.6073 96.5 29.0509 96.2695 28.6407 95.8593C28.2305 95.4491 28 94.8927 28 94.3125C28 93.7323 28.2305 93.1759 28.6407 92.7657C29.0509 92.3555 29.6073 92.125 30.1875 92.125ZM30.1875 92.125V81.1875C30.1875 79.1517 30.1875 78.1338 30.4383 77.3083C30.7164 76.3901 31.2167 75.5546 31.8949 74.8759C32.5731 74.1972 33.4082 73.6963 34.3263 73.4175C35.1546 73.1667 36.1725 73.1667 38.2083 73.1667M38.2083 46.1875C38.2083 46.7677 37.9779 47.3241 37.5676 47.7343C37.1574 48.1445 36.601 48.375 36.0208 48.375C35.4407 48.375 34.8843 48.1445 34.474 47.7343C34.0638 47.3241 33.8333 46.7677 33.8333 46.1875C33.8333 45.6073 34.0638 45.0509 34.474 44.6407C34.8843 44.2305 35.4407 44 36.0208 44C36.601 44 37.1574 44.2305 37.5676 44.6407C37.9779 45.0509 38.2083 45.6073 38.2083 46.1875ZM38.2083 46.1875H49.1458C51.1817 46.1875 52.1996 46.1875 53.025 46.4383C53.9433 46.7164 54.7787 47.2167 55.4574 47.8949C56.1361 48.5731 56.637 49.4082 56.9158 50.3263C57.1667 51.1546 57.1667 52.1725 57.1667 54.2083M76.125 100.146C76.125 99.5657 76.3555 99.0093 76.7657 98.599C77.1759 98.1888 77.7323 97.9583 78.3125 97.9583C78.8927 97.9583 79.4491 98.1888 79.8593 98.599C80.2695 99.0093 80.5 99.5657 80.5 100.146C80.5 100.726 80.2695 101.282 79.8593 101.693C79.4491 102.103 78.8927 102.333 78.3125 102.333C77.7323 102.333 77.1759 102.103 76.7657 101.693C76.3555 101.282 76.125 100.726 76.125 100.146ZM76.125 100.146H65.1875C63.1517 100.146 62.1338 100.146 61.3083 99.895C60.3901 99.6169 59.5546 99.1166 58.8759 98.4384C58.1972 97.7602 57.6963 96.9251 57.4175 96.0071C57.1667 95.1788 57.1667 94.1608 57.1667 92.125" stroke="white" stroke-width="2" stroke-linecap="round" stroke-linejoin="round"/>
<path d="M38.3513 73.0238C38.3513 64.0871 38.3513 59.6188 41.128 56.8421C43.9047 54.0654 48.373 54.0654 57.3097 54.0654C66.2463 54.0654 70.7147 54.0654 73.4913 56.8421C76.268 59.6188 76.268 64.0871 76.268 73.0238C76.268 81.9604 76.268 86.4288 73.4913 89.2054C70.7147 91.9821 66.2463 91.9821 57.3097 91.9821C48.373 91.9821 43.9047 91.9821 41.128 89.2054C38.3513 86.4288 38.3513 81.9604 38.3513 73.0238Z" stroke="white" stroke-width="2" stroke-linecap="round" stroke-linejoin="round"/>
<path d="M57.5 15C68.1847 15 77.8897 16.0114 84.9512 17.6621C88.4738 18.4856 91.3941 19.4805 93.458 20.6211C94.4896 21.1913 95.3543 21.8231 95.9707 22.5273C96.5927 23.238 97 24.0696 97 25V106C97 106.92 96.6003 107.772 95.998 108.524C95.3959 109.277 94.5461 109.987 93.5186 110.654C91.4625 111.989 88.5465 113.242 85.0156 114.32C77.9419 116.482 68.2171 118 57.5 118C46.7829 118 37.0581 116.482 29.9844 114.32C26.4535 113.242 23.5375 111.989 21.4814 110.654C20.4539 109.987 19.6041 109.277 19.002 108.524C18.3997 107.772 18 106.92 18 106V25C18 24.0696 18.4073 23.238 19.0293 22.5273C19.6457 21.8231 20.5104 21.1913 21.542 20.6211C23.6059 19.4805 26.5262 18.4856 30.0488 17.6621C37.1103 16.0114 46.8153 15 57.5 15ZM95 28.373C94.5456 28.7276 94.0282 29.0638 93.458 29.3789C91.3941 30.5195 88.4738 31.5144 84.9512 32.3379C77.8897 33.9886 68.1847 35 57.5 35C46.8153 35 37.1103 33.9886 30.0488 32.3379C26.5262 31.5144 23.6059 30.5195 21.542 29.3789C20.9719 29.0638 20.4544 28.7276 20 28.373V106C20 106.322 20.1392 106.746 20.5625 107.274C20.986 107.803 21.6497 108.379 22.5703 108.977C24.4106 110.171 27.1324 111.357 30.5684 112.407C37.4288 114.503 46.9542 116 57.5 116C68.0458 116 77.5712 114.503 84.4316 112.407C87.8676 111.357 90.5894 110.171 92.4297 108.977C93.3503 108.379 94.014 107.803 94.4375 107.274C94.8608 106.746 95 106.322 95 106V28.373ZM57.5 17C46.9218 17 37.3767 18.0028 30.5039 19.6094C27.0596 20.4145 24.3413 21.3593 22.5088 22.3721C21.5924 22.8786 20.9434 23.3772 20.5342 23.8447C20.1307 24.3057 20 24.6879 20 25C20 25.3121 20.1307 25.6943 20.5342 26.1553C20.9434 26.6228 21.5924 27.1214 22.5088 27.6279C24.3413 28.6407 27.0596 29.5855 30.5039 30.3906C37.3767 31.9972 46.9218 33 57.5 33C68.0782 33 77.6233 31.9972 84.4961 30.3906C87.9404 29.5855 90.6587 28.6407 92.4912 27.6279C93.4076 27.1214 94.0566 26.6228 94.4658 26.1553C94.8693 25.6943 95 25.3121 95 25C95 24.6879 94.8693 24.3057 94.4658 23.8447C94.0566 23.3772 93.4076 22.8786 92.4912 22.3721C90.6587 21.3593 87.9404 20.4145 84.4961 19.6094C77.6233 18.0028 68.0782 17 57.5 17Z" fill="white"/>
<path fill-rule="evenodd" clip-rule="evenodd" d="M90.9997 81C90.802 81 90.6087 81.0587 90.4443 81.1686C90.2799 81.2785 90.1517 81.4346 90.076 81.6173C90.0004 81.8 89.9806 82.001 90.0191 82.195C90.0577 82.389 90.1529 82.5671 90.2927 82.707L95.2927 87.707C95.4803 87.8944 95.7346 87.9998 95.9997 87.9998C96.2649 87.9998 96.5192 87.8944 96.7067 87.707L101.707 82.707C101.847 82.5671 101.942 82.389 101.98 82.195C102.019 82.001 101.999 81.8 101.923 81.6173C101.848 81.4346 101.72 81.2785 101.555 81.1686C101.391 81.0587 101.197 81 101 81H90.9997Z" fill="white"/>
<path fill-rule="evenodd" clip-rule="evenodd" d="M23.9998 57.9998C24.1975 57.9997 24.3908 57.9411 24.5552 57.8312C24.7197 57.7213 24.8478 57.5651 24.9235 57.3824C24.9991 57.1997 25.0189 56.9987 24.9804 56.8048C24.9418 56.6108 24.8466 56.4326 24.7068 56.2928L19.7068 51.2928C19.5193 51.1053 19.265 51 18.9998 51C18.7346 51 18.4803 51.1053 18.2928 51.2928L13.2928 56.2928C13.153 56.4326 13.0578 56.6108 13.0192 56.8048C12.9806 56.9987 13.0004 57.1997 13.0761 57.3824C13.1518 57.5651 13.2799 57.7213 13.4443 57.8312C13.6087 57.9411 13.802 57.9997 13.9998 57.9998H23.9998Z" fill="white"/>
<path d="M129.004 55.2227H133.105C133.051 56.4102 132.73 57.457 132.145 58.3633C131.559 59.2695 130.746 59.9766 129.707 60.4844C128.676 60.9844 127.457 61.2344 126.051 61.2344C124.91 61.2344 123.891 61.043 122.992 60.6602C122.102 60.2773 121.344 59.7266 120.719 59.0078C120.102 58.2891 119.629 57.418 119.301 56.3945C118.98 55.3711 118.82 54.2188 118.82 52.9375V52.0117C118.82 50.7305 118.988 49.5781 119.324 48.5547C119.668 47.5234 120.152 46.6484 120.777 45.9297C121.41 45.2031 122.168 44.6484 123.051 44.2656C123.934 43.8828 124.914 43.6914 125.992 43.6914C127.477 43.6914 128.73 43.957 129.754 44.4883C130.777 45.0195 131.57 45.75 132.133 46.6797C132.695 47.6016 133.027 48.6523 133.129 49.832H129.027C129.012 49.1914 128.902 48.6562 128.699 48.2266C128.496 47.7891 128.176 47.4609 127.738 47.2422C127.301 47.0234 126.719 46.9141 125.992 46.9141C125.484 46.9141 125.043 47.0078 124.668 47.1953C124.293 47.3828 123.98 47.6797 123.73 48.0859C123.48 48.4922 123.293 49.0195 123.168 49.668C123.051 50.3086 122.992 51.082 122.992 51.9883V52.9375C122.992 53.8438 123.047 54.6172 123.156 55.2578C123.266 55.8984 123.441 56.4219 123.684 56.8281C123.926 57.2344 124.238 57.5352 124.621 57.7305C125.012 57.918 125.488 58.0117 126.051 58.0117C126.676 58.0117 127.203 57.9141 127.633 57.7188C128.062 57.5156 128.395 57.2109 128.629 56.8047C128.863 56.3906 128.988 55.8633 129.004 55.2227ZM149.488 52.1289V52.8203C149.488 54.125 149.305 55.2969 148.938 56.3359C148.578 57.3672 148.066 58.25 147.402 58.9844C146.738 59.7109 145.953 60.2695 145.047 60.6602C144.141 61.043 143.141 61.2344 142.047 61.2344C140.945 61.2344 139.938 61.043 139.023 60.6602C138.117 60.2695 137.328 59.7109 136.656 58.9844C135.992 58.25 135.477 57.3672 135.109 56.3359C134.75 55.2969 134.57 54.125 134.57 52.8203V52.1289C134.57 50.8242 134.75 49.6523 135.109 48.6133C135.477 47.5742 135.988 46.6914 136.645 45.9648C137.309 45.2305 138.094 44.6719 139 44.2891C139.914 43.8984 140.922 43.7031 142.023 43.7031C143.117 43.7031 144.117 43.8984 145.023 44.2891C145.938 44.6719 146.727 45.2305 147.391 45.9648C148.055 46.6914 148.57 47.5742 148.938 48.6133C149.305 49.6523 149.488 50.8242 149.488 52.1289ZM145.316 52.8203V52.1055C145.316 51.2617 145.242 50.5195 145.094 49.8789C144.953 49.2305 144.742 48.6875 144.461 48.25C144.18 47.8125 143.832 47.4844 143.418 47.2656C143.012 47.0391 142.547 46.9258 142.023 46.9258C141.477 46.9258 141 47.0391 140.594 47.2656C140.188 47.4844 139.848 47.8125 139.574 48.25C139.301 48.6875 139.094 49.2305 138.953 49.8789C138.82 50.5195 138.754 51.2617 138.754 52.1055V52.8203C138.754 53.6562 138.82 54.3984 138.953 55.0469C139.094 55.6875 139.301 56.2305 139.574 56.6758C139.855 57.1211 140.199 57.457 140.605 57.6836C141.02 57.9102 141.5 58.0234 142.047 58.0234C142.57 58.0234 143.035 57.9102 143.441 57.6836C143.848 57.457 144.188 57.1211 144.461 56.6758C144.742 56.2305 144.953 55.6875 145.094 55.0469C145.242 54.3984 145.316 53.6562 145.316 52.8203ZM163.117 50.7109V53.875H154.363V50.7109H163.117ZM155.734 43.9375V61H151.621V43.9375H155.734ZM165.883 43.9375V61H161.781V43.9375H165.883ZM182.934 52.1289V52.8203C182.934 54.125 182.75 55.2969 182.383 56.3359C182.023 57.3672 181.512 58.25 180.848 58.9844C180.184 59.7109 179.398 60.2695 178.492 60.6602C177.586 61.043 176.586 61.2344 175.492 61.2344C174.391 61.2344 173.383 61.043 172.469 60.6602C171.562 60.2695 170.773 59.7109 170.102 58.9844C169.438 58.25 168.922 57.3672 168.555 56.3359C168.195 55.2969 168.016 54.125 168.016 52.8203V52.1289C168.016 50.8242 168.195 49.6523 168.555 48.6133C168.922 47.5742 169.434 46.6914 170.09 45.9648C170.754 45.2305 171.539 44.6719 172.445 44.2891C173.359 43.8984 174.367 43.7031 175.469 43.7031C176.562 43.7031 177.562 43.8984 178.469 44.2891C179.383 44.6719 180.172 45.2305 180.836 45.9648C181.5 46.6914 182.016 47.5742 182.383 48.6133C182.75 49.6523 182.934 50.8242 182.934 52.1289ZM178.762 52.8203V52.1055C178.762 51.2617 178.688 50.5195 178.539 49.8789C178.398 49.2305 178.188 48.6875 177.906 48.25C177.625 47.8125 177.277 47.4844 176.863 47.2656C176.457 47.0391 175.992 46.9258 175.469 46.9258C174.922 46.9258 174.445 47.0391 174.039 47.2656C173.633 47.4844 173.293 47.8125 173.02 48.25C172.746 48.6875 172.539 49.2305 172.398 49.8789C172.266 50.5195 172.199 51.2617 172.199 52.1055V52.8203C172.199 53.6562 172.266 54.3984 172.398 55.0469C172.539 55.6875 172.746 56.2305 173.02 56.6758C173.301 57.1211 173.645 57.457 174.051 57.6836C174.465 57.9102 174.945 58.0234 175.492 58.0234C176.016 58.0234 176.48 57.9102 176.887 57.6836C177.293 57.457 177.633 57.1211 177.906 56.6758C178.188 56.2305 178.398 55.6875 178.539 55.0469C178.688 54.3984 178.762 53.6562 178.762 52.8203ZM185.066 43.9375H191.781C193.094 43.9375 194.234 44.1328 195.203 44.5234C196.172 44.9141 196.918 45.4922 197.441 46.2578C197.973 47.0234 198.238 47.9688 198.238 49.0938C198.238 50.0703 198.086 50.8867 197.781 51.543C197.477 52.1992 197.051 52.7422 196.504 53.1719C195.965 53.5938 195.336 53.9414 194.617 54.2148L193.27 54.9766H187.633L187.609 51.8008H191.781C192.305 51.8008 192.738 51.707 193.082 51.5195C193.426 51.332 193.684 51.0664 193.855 50.7227C194.035 50.3711 194.125 49.9531 194.125 49.4688C194.125 48.9766 194.035 48.5547 193.855 48.2031C193.676 47.8516 193.41 47.582 193.059 47.3945C192.715 47.207 192.289 47.1133 191.781 47.1133H189.18V61H185.066V43.9375ZM194.406 61L190.633 53.4531L194.992 53.4297L198.812 60.8242V61H194.406ZM208.398 43.9375V61H204.285V43.9375H208.398ZM213.531 43.9375V47.1133H199.27V43.9375H213.531ZM227.781 47.5234L223.621 61H219.203L225.473 43.9375H228.273L227.781 47.5234ZM231.227 61L227.055 47.5234L226.516 43.9375H229.352L235.656 61H231.227ZM231.062 54.6367V57.8125H222.309V54.6367H231.062ZM251.16 43.9375V61H247.059L241.023 50.3828V61H236.91V43.9375H241.023L247.059 54.5547V43.9375H251.16ZM261.203 47.5234L257.043 61H252.625L258.895 43.9375H261.695L261.203 47.5234ZM264.648 61L260.477 47.5234L259.938 43.9375H262.773L269.078 61H264.648ZM264.484 54.6367V57.8125H255.73V54.6367H264.484ZM281.605 57.8359V61H272.98V57.8359H281.605ZM274.445 43.9375V61H270.332V43.9375H274.445ZM283.152 43.9375L286.293 51.3438L289.445 43.9375H293.875L288.391 54.8711V61H284.207V54.8711L278.711 43.9375H283.152ZM303.73 56.4648C303.73 56.1992 303.691 55.9609 303.613 55.75C303.535 55.5312 303.391 55.3281 303.18 55.1406C302.969 54.9531 302.664 54.7656 302.266 54.5781C301.875 54.3828 301.359 54.1797 300.719 53.9688C299.969 53.7188 299.246 53.4375 298.551 53.125C297.855 52.8047 297.234 52.4336 296.688 52.0117C296.141 51.582 295.707 51.082 295.387 50.5117C295.066 49.9336 294.906 49.2617 294.906 48.4961C294.906 47.7617 295.07 47.1016 295.398 46.5156C295.727 45.9219 296.184 45.418 296.77 45.0039C297.363 44.582 298.059 44.2617 298.855 44.043C299.652 43.8164 300.523 43.7031 301.469 43.7031C302.719 43.7031 303.82 43.9219 304.773 44.3594C305.734 44.7891 306.484 45.4023 307.023 46.1992C307.57 46.9883 307.844 47.9219 307.844 49H303.754C303.754 48.5703 303.664 48.1914 303.484 47.8633C303.312 47.5352 303.051 47.2773 302.699 47.0898C302.348 46.9023 301.906 46.8086 301.375 46.8086C300.859 46.8086 300.426 46.8867 300.074 47.043C299.723 47.1992 299.457 47.4102 299.277 47.6758C299.098 47.9336 299.008 48.2188 299.008 48.5312C299.008 48.7891 299.078 49.0234 299.219 49.2344C299.367 49.4375 299.574 49.6289 299.84 49.8086C300.113 49.9883 300.441 50.1602 300.824 50.3242C301.215 50.4883 301.652 50.6484 302.137 50.8047C303.043 51.0938 303.848 51.418 304.551 51.7773C305.262 52.1289 305.859 52.5312 306.344 52.9844C306.836 53.4297 307.207 53.9375 307.457 54.5078C307.715 55.0781 307.844 55.7227 307.844 56.4414C307.844 57.207 307.695 57.8867 307.398 58.4805C307.102 59.0742 306.676 59.5781 306.121 59.9922C305.566 60.3984 304.902 60.707 304.129 60.918C303.355 61.1289 302.492 61.2344 301.539 61.2344C300.664 61.2344 299.801 61.125 298.949 60.9062C298.105 60.6797 297.34 60.3359 296.652 59.875C295.965 59.4062 295.414 58.8086 295 58.082C294.594 57.3477 294.391 56.4766 294.391 55.4688H298.516C298.516 55.9688 298.582 56.3906 298.715 56.7344C298.848 57.0781 299.043 57.3555 299.301 57.5664C299.559 57.7695 299.875 57.918 300.25 58.0117C300.625 58.0977 301.055 58.1406 301.539 58.1406C302.062 58.1406 302.484 58.0664 302.805 57.918C303.125 57.7617 303.359 57.5586 303.508 57.3086C303.656 57.0508 303.73 56.7695 303.73 56.4648ZM314.336 43.9375V61H310.234V43.9375H314.336ZM326.02 56.4648C326.02 56.1992 325.98 55.9609 325.902 55.75C325.824 55.5312 325.68 55.3281 325.469 55.1406C325.258 54.9531 324.953 54.7656 324.555 54.5781C324.164 54.3828 323.648 54.1797 323.008 53.9688C322.258 53.7188 321.535 53.4375 320.84 53.125C320.145 52.8047 319.523 52.4336 318.977 52.0117C318.43 51.582 317.996 51.082 317.676 50.5117C317.355 49.9336 317.195 49.2617 317.195 48.4961C317.195 47.7617 317.359 47.1016 317.688 46.5156C318.016 45.9219 318.473 45.418 319.059 45.0039C319.652 44.582 320.348 44.2617 321.145 44.043C321.941 43.8164 322.812 43.7031 323.758 43.7031C325.008 43.7031 326.109 43.9219 327.062 44.3594C328.023 44.7891 328.773 45.4023 329.312 46.1992C329.859 46.9883 330.133 47.9219 330.133 49H326.043C326.043 48.5703 325.953 48.1914 325.773 47.8633C325.602 47.5352 325.34 47.2773 324.988 47.0898C324.637 46.9023 324.195 46.8086 323.664 46.8086C323.148 46.8086 322.715 46.8867 322.363 47.043C322.012 47.1992 321.746 47.4102 321.566 47.6758C321.387 47.9336 321.297 48.2188 321.297 48.5312C321.297 48.7891 321.367 49.0234 321.508 49.2344C321.656 49.4375 321.863 49.6289 322.129 49.8086C322.402 49.9883 322.73 50.1602 323.113 50.3242C323.504 50.4883 323.941 50.6484 324.426 50.8047C325.332 51.0938 326.137 51.418 326.84 51.7773C327.551 52.1289 328.148 52.5312 328.633 52.9844C329.125 53.4297 329.496 53.9375 329.746 54.5078C330.004 55.0781 330.133 55.7227 330.133 56.4414C330.133 57.207 329.984 57.8867 329.688 58.4805C329.391 59.0742 328.965 59.5781 328.41 59.9922C327.855 60.3984 327.191 60.707 326.418 60.918C325.645 61.1289 324.781 61.2344 323.828 61.2344C322.953 61.2344 322.09 61.125 321.238 60.9062C320.395 60.6797 319.629 60.3359 318.941 59.875C318.254 59.4062 317.703 58.8086 317.289 58.082C316.883 57.3477 316.68 56.4766 316.68 55.4688H320.805C320.805 55.9688 320.871 56.3906 321.004 56.7344C321.137 57.0781 321.332 57.3555 321.59 57.5664C321.848 57.7695 322.164 57.918 322.539 58.0117C322.914 58.0977 323.344 58.1406 323.828 58.1406C324.352 58.1406 324.773 58.0664 325.094 57.918C325.414 57.7617 325.648 57.5586 325.797 57.3086C325.945 57.0508 326.02 56.7695 326.02 56.4648Z" fill="white"/>
<path d="M124.598 89H121.035L121.059 87.1602H124.598C125.816 87.1602 126.832 86.9062 127.645 86.3984C128.457 85.8828 129.066 85.1641 129.473 84.2422C129.887 83.3125 130.094 82.2266 130.094 80.9844V79.9414C130.094 78.9648 129.977 78.0977 129.742 77.3398C129.508 76.5742 129.164 75.9297 128.711 75.4062C128.258 74.875 127.703 74.4727 127.047 74.1992C126.398 73.9258 125.652 73.7891 124.809 73.7891H120.965V71.9375H124.809C125.926 71.9375 126.945 72.125 127.867 72.5C128.789 72.8672 129.582 73.4023 130.246 74.1055C130.918 74.8008 131.434 75.6445 131.793 76.6367C132.152 77.6211 132.332 78.7305 132.332 79.9648V80.9844C132.332 82.2188 132.152 83.332 131.793 84.3242C131.434 85.3086 130.914 86.1484 130.234 86.8438C129.562 87.5391 128.75 88.0742 127.797 88.4492C126.852 88.8164 125.785 89 124.598 89ZM122.242 71.9375V89H119.98V71.9375H122.242ZM141.789 73.4492L136.141 89H133.832L140.336 71.9375H141.824L141.789 73.4492ZM146.523 89L140.863 73.4492L140.828 71.9375H142.316L148.844 89H146.523ZM146.23 82.6836V84.5352H136.645V82.6836H146.23ZM155.91 71.9375V89H153.684V71.9375H155.91ZM161.395 71.9375V73.7891H148.211V71.9375H161.395ZM169.305 73.4492L163.656 89H161.348L167.852 71.9375H169.34L169.305 73.4492ZM174.039 89L168.379 73.4492L168.344 71.9375H169.832L176.359 89H174.039ZM173.746 82.6836V84.5352H164.16V82.6836H173.746ZM194.898 83.5742H197.148C197.031 84.6523 196.723 85.6172 196.223 86.4688C195.723 87.3203 195.016 87.9961 194.102 88.4961C193.188 88.9883 192.047 89.2344 190.68 89.2344C189.68 89.2344 188.77 89.0469 187.949 88.6719C187.137 88.2969 186.438 87.7656 185.852 87.0781C185.266 86.3828 184.812 85.5508 184.492 84.582C184.18 83.6055 184.023 82.5195 184.023 81.3242V79.625C184.023 78.4297 184.18 77.3477 184.492 76.3789C184.812 75.4023 185.27 74.5664 185.863 73.8711C186.465 73.1758 187.188 72.6406 188.031 72.2656C188.875 71.8906 189.824 71.7031 190.879 71.7031C192.168 71.7031 193.258 71.9453 194.148 72.4297C195.039 72.9141 195.73 73.5859 196.223 74.4453C196.723 75.2969 197.031 76.2852 197.148 77.4102H194.898C194.789 76.6133 194.586 75.9297 194.289 75.3594C193.992 74.7812 193.57 74.3359 193.023 74.0234C192.477 73.7109 191.762 73.5547 190.879 73.5547C190.121 73.5547 189.453 73.6992 188.875 73.9883C188.305 74.2773 187.824 74.6875 187.434 75.2188C187.051 75.75 186.762 76.3867 186.566 77.1289C186.371 77.8711 186.273 78.6953 186.273 79.6016V81.3242C186.273 82.1602 186.359 82.9453 186.531 83.6797C186.711 84.4141 186.98 85.0586 187.34 85.6133C187.699 86.168 188.156 86.6055 188.711 86.9258C189.266 87.2383 189.922 87.3945 190.68 87.3945C191.641 87.3945 192.406 87.2422 192.977 86.9375C193.547 86.6328 193.977 86.1953 194.266 85.625C194.562 85.0547 194.773 84.3711 194.898 83.5742ZM213.367 79.9297V81.0078C213.367 82.2891 213.207 83.4375 212.887 84.4531C212.566 85.4688 212.105 86.332 211.504 87.043C210.902 87.7539 210.18 88.2969 209.336 88.6719C208.5 89.0469 207.562 89.2344 206.523 89.2344C205.516 89.2344 204.59 89.0469 203.746 88.6719C202.91 88.2969 202.184 87.7539 201.566 87.043C200.957 86.332 200.484 85.4688 200.148 84.4531C199.812 83.4375 199.645 82.2891 199.645 81.0078V79.9297C199.645 78.6484 199.809 77.5039 200.137 76.4961C200.473 75.4805 200.945 74.6172 201.555 73.9062C202.164 73.1875 202.887 72.6406 203.723 72.2656C204.566 71.8906 205.492 71.7031 206.5 71.7031C207.539 71.7031 208.477 71.8906 209.312 72.2656C210.156 72.6406 210.879 73.1875 211.48 73.9062C212.09 74.6172 212.555 75.4805 212.875 76.4961C213.203 77.5039 213.367 78.6484 213.367 79.9297ZM211.129 81.0078V79.9062C211.129 78.8906 211.023 77.9922 210.812 77.2109C210.609 76.4297 210.309 75.7734 209.91 75.2422C209.512 74.7109 209.023 74.3086 208.445 74.0352C207.875 73.7617 207.227 73.625 206.5 73.625C205.797 73.625 205.16 73.7617 204.59 74.0352C204.027 74.3086 203.543 74.7109 203.137 75.2422C202.738 75.7734 202.43 76.4297 202.211 77.2109C201.992 77.9922 201.883 78.8906 201.883 79.9062V81.0078C201.883 82.0312 201.992 82.9375 202.211 83.7266C202.43 84.5078 202.742 85.168 203.148 85.707C203.562 86.2383 204.051 86.6406 204.613 86.9141C205.184 87.1875 205.82 87.3242 206.523 87.3242C207.258 87.3242 207.91 87.1875 208.48 86.9141C209.051 86.6406 209.531 86.2383 209.922 85.707C210.32 85.168 210.621 84.5078 210.824 83.7266C211.027 82.9375 211.129 82.0312 211.129 81.0078ZM217.469 71.9375H219.66L225.25 85.8477L230.828 71.9375H233.031L226.094 89H224.383L217.469 71.9375ZM216.754 71.9375H218.688L219.004 82.3438V89H216.754V71.9375ZM231.801 71.9375H233.734V89H231.484V82.3438L231.801 71.9375ZM238.422 71.9375H240.613L246.203 85.8477L251.781 71.9375H253.984L247.047 89H245.336L238.422 71.9375ZM237.707 71.9375H239.641L239.957 82.3438V89H237.707V71.9375ZM252.754 71.9375H254.688V89H252.438V82.3438L252.754 71.9375ZM271.797 79.9297V81.0078C271.797 82.2891 271.637 83.4375 271.316 84.4531C270.996 85.4688 270.535 86.332 269.934 87.043C269.332 87.7539 268.609 88.2969 267.766 88.6719C266.93 89.0469 265.992 89.2344 264.953 89.2344C263.945 89.2344 263.02 89.0469 262.176 88.6719C261.34 88.2969 260.613 87.7539 259.996 87.043C259.387 86.332 258.914 85.4688 258.578 84.4531C258.242 83.4375 258.074 82.2891 258.074 81.0078V79.9297C258.074 78.6484 258.238 77.5039 258.566 76.4961C258.902 75.4805 259.375 74.6172 259.984 73.9062C260.594 73.1875 261.316 72.6406 262.152 72.2656C262.996 71.8906 263.922 71.7031 264.93 71.7031C265.969 71.7031 266.906 71.8906 267.742 72.2656C268.586 72.6406 269.309 73.1875 269.91 73.9062C270.52 74.6172 270.984 75.4805 271.305 76.4961C271.633 77.5039 271.797 78.6484 271.797 79.9297ZM269.559 81.0078V79.9062C269.559 78.8906 269.453 77.9922 269.242 77.2109C269.039 76.4297 268.738 75.7734 268.34 75.2422C267.941 74.7109 267.453 74.3086 266.875 74.0352C266.305 73.7617 265.656 73.625 264.93 73.625C264.227 73.625 263.59 73.7617 263.02 74.0352C262.457 74.3086 261.973 74.7109 261.566 75.2422C261.168 75.7734 260.859 76.4297 260.641 77.2109C260.422 77.9922 260.312 78.8906 260.312 79.9062V81.0078C260.312 82.0312 260.422 82.9375 260.641 83.7266C260.859 84.5078 261.172 85.168 261.578 85.707C261.992 86.2383 262.48 86.6406 263.043 86.9141C263.613 87.1875 264.25 87.3242 264.953 87.3242C265.688 87.3242 266.34 87.1875 266.91 86.9141C267.48 86.6406 267.961 86.2383 268.352 85.707C268.75 85.168 269.051 84.5078 269.254 83.7266C269.457 82.9375 269.559 82.0312 269.559 81.0078ZM288.309 71.9375V89H286.035L277.445 75.8398V89H275.184V71.9375H277.445L286.07 85.1328V71.9375H288.309ZM301.41 84.6875C301.41 84.2891 301.348 83.9375 301.223 83.6328C301.105 83.3203 300.895 83.0391 300.59 82.7891C300.293 82.5391 299.879 82.3008 299.348 82.0742C298.824 81.8477 298.16 81.6172 297.355 81.3828C296.512 81.1328 295.75 80.8555 295.07 80.5508C294.391 80.2383 293.809 79.8828 293.324 79.4844C292.84 79.0859 292.469 78.6289 292.211 78.1133C291.953 77.5977 291.824 77.0078 291.824 76.3438C291.824 75.6797 291.961 75.0664 292.234 74.5039C292.508 73.9414 292.898 73.4531 293.406 73.0391C293.922 72.6172 294.535 72.2891 295.246 72.0547C295.957 71.8203 296.75 71.7031 297.625 71.7031C298.906 71.7031 299.992 71.9492 300.883 72.4414C301.781 72.9258 302.465 73.5625 302.934 74.3516C303.402 75.1328 303.637 75.9688 303.637 76.8594H301.387C301.387 76.2188 301.25 75.6523 300.977 75.1602C300.703 74.6602 300.289 74.2695 299.734 73.9883C299.18 73.6992 298.477 73.5547 297.625 73.5547C296.82 73.5547 296.156 73.6758 295.633 73.918C295.109 74.1602 294.719 74.4883 294.461 74.9023C294.211 75.3164 294.086 75.7891 294.086 76.3203C294.086 76.6797 294.16 77.0078 294.309 77.3047C294.465 77.5938 294.703 77.8633 295.023 78.1133C295.352 78.3633 295.766 78.5938 296.266 78.8047C296.773 79.0156 297.379 79.2188 298.082 79.4141C299.051 79.6875 299.887 79.9922 300.59 80.3281C301.293 80.6641 301.871 81.043 302.324 81.4648C302.785 81.8789 303.125 82.3516 303.344 82.8828C303.57 83.4062 303.684 84 303.684 84.6641C303.684 85.3594 303.543 85.9883 303.262 86.5508C302.98 87.1133 302.578 87.5938 302.055 87.9922C301.531 88.3906 300.902 88.6992 300.168 88.918C299.441 89.1289 298.629 89.2344 297.73 89.2344C296.941 89.2344 296.164 89.125 295.398 88.9062C294.641 88.6875 293.949 88.3594 293.324 87.9219C292.707 87.4844 292.211 86.9453 291.836 86.3047C291.469 85.6562 291.285 84.9062 291.285 84.0547H293.535C293.535 84.6406 293.648 85.1445 293.875 85.5664C294.102 85.9805 294.41 86.3242 294.801 86.5977C295.199 86.8711 295.648 87.0742 296.148 87.207C296.656 87.332 297.184 87.3945 297.73 87.3945C298.52 87.3945 299.188 87.2852 299.734 87.0664C300.281 86.8477 300.695 86.5352 300.977 86.1289C301.266 85.7227 301.41 85.2422 301.41 84.6875Z" fill="white"/>
</svg>
