<svg width="24" height="25" viewBox="0 0 24 25" fill="none" xmlns="http://www.w3.org/2000/svg">
<path d="M13.4256 23.4379L23.4297 13.4338C23.6119 13.2435 23.7547 13.0191 23.8499 12.7735C24.05 12.2864 24.05 11.74 23.8499 11.2529C23.7547 11.0073 23.6119 10.7829 23.4297 10.5926L13.4256 0.588427C13.239 0.401873 13.0176 0.25389 12.7738 0.152928C12.5301 0.0519649 12.2688 -5.12786e-07 12.005 -5.24319e-07C11.4722 -5.47609e-07 10.9612 0.211663 10.5844 0.588427C10.2076 0.965191 9.99597 1.47619 9.99597 2.00902C9.99597 2.54184 10.2076 3.05284 10.5844 3.42961L17.1871 10.0123L2.00083 10.0123C1.47018 10.0123 0.961257 10.2231 0.586029 10.5984C0.2108 10.9736 1.40543e-06 11.4825 1.38224e-06 12.0132C1.35904e-06 12.5438 0.2108 13.0527 0.586028 13.428C0.961257 13.8032 1.47018 14.014 2.00083 14.014L17.1871 14.014L10.5844 20.5967C10.3969 20.7827 10.248 21.004 10.1464 21.2479C10.0449 21.4917 9.99255 21.7532 9.99255 22.0173C9.99255 22.2815 10.0449 22.543 10.1464 22.7868C10.248 23.0306 10.3969 23.2519 10.5844 23.4379C10.7704 23.6255 10.9917 23.7743 11.2355 23.8759C11.4793 23.9775 11.7409 24.0298 12.005 24.0298C12.2691 24.0298 12.5306 23.9775 12.7745 23.8759C13.0183 23.7743 13.2396 23.6255 13.4256 23.4379Z" fill="#800000"/>
</svg>
