<svg width="48" height="48" viewBox="0 0 48 48" fill="none" xmlns="http://www.w3.org/2000/svg">
<path d="M25.6 34.3999C25.7 33.9999 25.7 33.4999 25.7 32.9999C25.7 32.4999 25.7 32.0999 25.6 31.5999L28.4 29.5999C28.7 29.3999 28.8 28.9999 28.6 28.6999L25.9 24.0999C25.7 23.7999 25.4 23.6999 25.1 23.7999L22 25.2999C21.3 24.6999 20.5 24.2999 19.6 23.8999L19.3 20.4999C19.3 20.1999 19 19.8999 18.7 19.8999H13.4C13.1 19.8999 12.8 20.1999 12.8 20.4999L12.4 23.9999C11.5 24.2999 10.8 24.7999 10 25.3999L6.90001 23.9999C6.60001 23.8999 6.20001 23.9999 6.10001 24.2999L3.40001 28.8999C3.20001 29.1999 3.30001 29.5999 3.60001 29.7999L6.40001 31.7999C6.30001 32.1999 6.30001 32.6999 6.30001 33.1999C6.30001 33.6999 6.30001 34.0999 6.40001 34.5999L3.60001 36.5999C3.30001 36.7999 3.20001 37.1999 3.40001 37.4999L6.10001 42.0999C6.30001 42.3999 6.60001 42.4999 6.90001 42.3999L10 40.9999C10.7 41.5999 11.5 41.9999 12.4 42.3999L12.7 45.7999C12.7 46.0999 13 46.3999 13.3 46.3999H18.6C18.9 46.3999 19.2 46.0999 19.2 45.7999L19.5 42.3999C20.4 42.0999 21.1 41.5999 21.9 40.9999L25 42.3999C25.3 42.4999 25.7 42.3999 25.8 42.0999L28.5 37.4999C28.7 37.1999 28.6 36.7999 28.3 36.5999L25.6 34.3999ZM16 37.9999C13.2 37.9999 11 35.7999 11 32.9999C11 30.1999 13.2 27.9999 16 27.9999C18.8 27.9999 21 30.1999 21 32.9999C21 35.7999 18.8 37.9999 16 37.9999Z" fill="#800000"/>
<path d="M41.9 15.3C42 14.8 42 14.4 42 14C42 13.6 42 13.2 41.9 12.7L44.4 10.9C44.7 10.7 44.7 10.4 44.6 10.1L42.1 5.8C41.9 5.5 41.6 5.4 41.3 5.6L38.4 6.9C37.7 6.4 37 6 36.2 5.6L35.9 2.5C36 2.2 35.8 2 35.5 2H30.6C30.3 2 30 2.2 30 2.5L29.7 5.6C28.9 5.9 28.2 6.3 27.5 6.9L24.6 5.6C24.3 5.5 24 5.6 23.8 5.8L21.3 10.1C21.1 10.4 21.2 10.7 21.5 10.9L24 12.7V14C24 14.4 24 14.8 24.1 15.3L21.6 17.1C21.3 17.3 21.3 17.6 21.4 17.9L23.9 22.2C24.1 22.5 24.4 22.6 24.7 22.4L27.6 21.1C28.3 21.6 29 22 29.8 22.4L30.1 25.5C30.1 25.8 30.4 26 30.7 26H35.6C35.9 26 36.2 25.8 36.2 25.5L36.5 22.4C37.3 22.1 38 21.7 38.7 21.1L41.6 22.4C41.9 22.5 42.2 22.4 42.4 22.2L44.9 17.9C45.1 17.6 45 17.3 44.7 17.1L41.9 15.3ZM33 19C30.2 19 28 16.8 28 14C28 11.2 30.2 9 33 9C35.8 9 38 11.2 38 14C38 16.8 35.8 19 33 19Z" fill="#800000"/>
</svg>
