<svg width="48" height="48" viewBox="0 0 48 48" fill="none" xmlns="http://www.w3.org/2000/svg">
<path d="M43.5 27C41.85 27 40.5 25.65 40.5 24C40.5 22.35 41.85 21 43.5 21C45.15 21 46.5 22.35 46.5 24C46.5 25.65 45.15 27 43.5 27ZM36 6C36 4.35 34.65 3 33 3C31.35 3 30 4.35 30 6C30 7.65 31.35 9 33 9C34.65 9 36 7.65 36 6ZM36 42C36 40.35 34.65 39 33 39C31.35 39 30 40.35 30 42C30 43.65 31.35 45 33 45C34.65 45 36 43.65 36 42ZM37.5 22.5H31.335C32.3373 21.525 33.1338 20.3589 33.6774 19.0707C34.2211 17.7825 34.5008 16.3983 34.5 15V12H31.5V15C31.5 19.14 28.14 22.5 24 22.5H13.5V25.5H24C28.14 25.5 31.5 28.86 31.5 33V36H34.5V33C34.5 30.06 33.285 27.405 31.335 25.5H37.5V22.5ZM17.445 30.435L17.385 30.465L15.42 31.62L13.5 32.76L6 28.32V19.68L13.5 15.24L15.42 16.38L17.385 17.535L17.445 17.565L20.01 19.095L21.54 16.515L18.975 14.985L18.915 14.955L16.92 13.785L14.265 12.21C14.025 12.075 13.77 12 13.5 12C13.23 12 12.975 12.075 12.735 12.21L3.735 17.535C3.285 17.805 3 18.3 3 18.825V29.175C3 29.7 3.285 30.195 3.735 30.465L12.735 35.79C12.975 35.925 13.23 36 13.5 36C13.77 36 14.025 35.925 14.265 35.79L16.92 34.215L18.915 33.045L18.975 33.015L21.54 31.485L20.01 28.905L17.445 30.435Z" fill="#800000"/>
</svg>
