<svg width="48" height="48" viewBox="0 0 48 48" fill="none" xmlns="http://www.w3.org/2000/svg">
<g clip-path="url(#clip0_7_87)">
<path d="M8.57137 30.2845H2.32794M45.6719 30.2845H39.4285M8.57137 17.7153H2.32794M45.6719 17.7153H39.4285M17.7154 8.57131V2.32788M17.7154 45.6719V39.4285M30.2845 8.57131V2.32788M30.2845 45.6719V39.4285M35.9999 8.57131H11.9999C11.0906 8.57131 10.2186 8.93253 9.57558 9.57551C8.93259 10.2185 8.57137 11.0906 8.57137 11.9999V35.9999C8.57137 36.9092 8.93259 37.7813 9.57558 38.4242C10.2186 39.0672 11.0906 39.4285 11.9999 39.4285H35.9999C36.9093 39.4285 37.7813 39.0672 38.4243 38.4242C39.0673 37.7813 39.4285 36.9092 39.4285 35.9999V11.9999C39.4285 11.0906 39.0673 10.2185 38.4243 9.57551C37.7813 8.93253 36.9093 8.57131 35.9999 8.57131Z" stroke="#800000" stroke-width="3.42857" stroke-linecap="round" stroke-linejoin="round"/>
<path d="M16.0011 24.8569C15.0376 24.6923 15.0376 23.3072 16.0011 23.1426C17.7086 22.843 19.2884 22.0425 20.5399 20.8429C21.7914 19.6433 22.658 18.0987 23.0296 16.4055L23.0914 16.1415C23.2971 15.1883 24.6582 15.1815 24.8742 16.1312L24.9428 16.4397C25.3274 18.1267 26.2021 19.6624 27.4569 20.8538C28.7117 22.0452 30.2907 22.8391 31.9954 23.1357C32.9656 23.3072 32.9656 24.6957 31.9954 24.8637C30.2911 25.1602 28.7125 25.9536 27.4577 27.1443C26.203 28.335 25.328 29.87 24.9428 31.5563L24.8742 31.8649C24.6582 32.818 23.2971 32.8112 23.0914 31.858L23.0331 31.594C22.6606 29.9009 21.7932 28.3567 20.5411 27.1578C19.289 25.9588 17.7087 25.1556 16.0011 24.8569Z" fill="#800000"/>
<path d="M16.0011 24.8569C15.0376 24.6923 15.0376 23.3072 16.0011 23.1426C17.7086 22.843 19.2884 22.0425 20.5399 20.8429C21.7914 19.6433 22.658 18.0987 23.0296 16.4055L23.0914 16.1415C23.2971 15.1883 24.6582 15.1815 24.8742 16.1312L24.9428 16.4397C25.3274 18.1267 26.2021 19.6624 27.4569 20.8538C28.7117 22.0452 30.2907 22.8391 31.9954 23.1357C32.9656 23.3072 32.9656 24.6957 31.9954 24.8637C30.2911 25.1602 28.7125 25.9536 27.4577 27.1443C26.203 28.335 25.328 29.87 24.9428 31.5563L24.8742 31.8649C24.6582 32.818 23.2971 32.8112 23.0914 31.858L23.0331 31.594C22.6606 29.9009 21.7932 28.3567 20.5411 27.1578C19.289 25.9588 17.7087 25.1556 16.0011 24.8569Z" stroke="#800000" stroke-width="3.42857" stroke-linecap="round" stroke-linejoin="round"/>
</g>
<defs>
<clipPath id="clip0_7_87">
<rect width="48" height="48" fill="white"/>
</clipPath>
</defs>
</svg>
