<svg width="48" height="48" viewBox="0 0 48 48" fill="none" xmlns="http://www.w3.org/2000/svg">
<path d="M9 36C9.59335 36 10.1734 36.1759 10.6667 36.5056C11.1601 36.8352 11.5446 37.3038 11.7716 37.8519C11.9987 38.4001 12.0581 39.0033 11.9424 39.5853C11.8266 40.1672 11.5409 40.7018 11.1213 41.1213C10.7018 41.5409 10.1672 41.8266 9.58527 41.9424C9.00333 42.0581 8.40013 41.9987 7.85195 41.7716C7.30377 41.5446 6.83524 41.1601 6.50559 40.6667C6.17595 40.1734 6 39.5933 6 39C6 38.2044 6.31607 37.4413 6.87868 36.8787C7.44129 36.3161 8.20435 36 9 36ZM9 33C7.81332 33 6.65328 33.3519 5.66658 34.0112C4.67989 34.6705 3.91085 35.6075 3.45673 36.7039C3.0026 37.8003 2.88378 39.0067 3.11529 40.1705C3.3468 41.3344 3.91825 42.4035 4.75736 43.2426C5.59648 44.0818 6.66557 44.6532 7.82946 44.8847C8.99335 45.1162 10.1997 44.9974 11.2961 44.5433C12.3925 44.0892 13.3295 43.3201 13.9888 42.3334C14.6481 41.3467 15 40.1867 15 39C15 37.4087 14.3679 35.8826 13.2426 34.7574C12.1174 33.6321 10.5913 33 9 33ZM24 6C24.5933 6 25.1734 6.17595 25.6667 6.50559C26.1601 6.83524 26.5446 7.30377 26.7716 7.85195C26.9987 8.40013 27.0581 9.00333 26.9424 9.58527C26.8266 10.1672 26.5409 10.7018 26.1213 11.1213C25.7018 11.5409 25.1672 11.8266 24.5853 11.9424C24.0033 12.0581 23.4001 11.9987 22.852 11.7716C22.3038 11.5446 21.8352 11.1601 21.5056 10.6667C21.176 10.1734 21 9.59334 21 9C21 8.20435 21.3161 7.44129 21.8787 6.87868C22.4413 6.31607 23.2044 6 24 6ZM24 3C22.8133 3 21.6533 3.35189 20.6666 4.01118C19.6799 4.67047 18.9109 5.60754 18.4567 6.7039C18.0026 7.80026 17.8838 9.00666 18.1153 10.1705C18.3468 11.3344 18.9182 12.4035 19.7574 13.2426C20.5965 14.0818 21.6656 14.6532 22.8295 14.8847C23.9933 15.1162 25.1997 14.9974 26.2961 14.5433C27.3925 14.0892 28.3295 13.3201 28.9888 12.3334C29.6481 11.3467 30 10.1867 30 9C30 7.4087 29.3679 5.88258 28.2426 4.75736C27.1174 3.63214 25.5913 3 24 3ZM39 6C39.5933 6 40.1734 6.17595 40.6667 6.50559C41.1601 6.83524 41.5446 7.30377 41.7716 7.85195C41.9987 8.40013 42.0581 9.00333 41.9424 9.58527C41.8266 10.1672 41.5409 10.7018 41.1213 11.1213C40.7018 11.5409 40.1672 11.8266 39.5853 11.9424C39.0033 12.0581 38.4001 11.9987 37.852 11.7716C37.3038 11.5446 36.8352 11.1601 36.5056 10.6667C36.176 10.1734 36 9.59334 36 9C36 8.20435 36.3161 7.44129 36.8787 6.87868C37.4413 6.31607 38.2044 6 39 6ZM39 3C37.8133 3 36.6533 3.35189 35.6666 4.01118C34.6799 4.67047 33.9109 5.60754 33.4567 6.7039C33.0026 7.80026 32.8838 9.00666 33.1153 10.1705C33.3468 11.3344 33.9182 12.4035 34.7574 13.2426C35.5965 14.0818 36.6656 14.6532 37.8295 14.8847C38.9933 15.1162 40.1997 14.9974 41.2961 14.5433C42.3925 14.0892 43.3295 13.3201 43.9888 12.3334C44.6481 11.3467 45 10.1867 45 9C45 7.4087 44.3679 5.88258 43.2426 4.75736C42.1174 3.63214 40.5913 3 39 3ZM27 36V42H21V36H27ZM30 33H18V45H30V33Z" fill="#800000"/>
<path d="M40.5 33.21V25.5C40.5 24.7044 40.1839 23.9413 39.6213 23.3787C39.0587 22.8161 38.2956 22.5 37.5 22.5H10.5V15H15V3H3V15H7.5V22.5C7.5 23.2956 7.81607 24.0587 8.37868 24.6213C8.94129 25.1839 9.70435 25.5 10.5 25.5H37.5V33.21C36.086 33.5751 34.8537 34.4433 34.0341 35.652C33.2145 36.8607 32.8638 38.3268 33.0478 39.7755C33.2318 41.2242 33.9379 42.5561 35.0337 43.5215C36.1294 44.4869 37.5396 45.0195 39 45.0195C40.4604 45.0195 41.8706 44.4869 42.9663 43.5215C44.0621 42.5561 44.7682 41.2242 44.9522 39.7755C45.1362 38.3268 44.7855 36.8607 43.9659 35.652C43.1463 34.4433 41.914 33.5751 40.5 33.21ZM6 6H12V12H6V6ZM39 42C38.4067 42 37.8266 41.8241 37.3333 41.4944C36.8399 41.1648 36.4554 40.6962 36.2284 40.1481C36.0013 39.5999 35.9419 38.9967 36.0576 38.4147C36.1734 37.8328 36.4591 37.2982 36.8787 36.8787C37.2982 36.4591 37.8328 36.1734 38.4147 36.0576C38.9967 35.9419 39.5999 36.0013 40.1481 36.2284C40.6962 36.4554 41.1648 36.8399 41.4944 37.3333C41.8241 37.8266 42 38.4067 42 39C42 39.7956 41.6839 40.5587 41.1213 41.1213C40.5587 41.6839 39.7956 42 39 42Z" fill="#800000"/>
</svg>
