<svg width="48" height="48" viewBox="0 0 48 48" fill="none" xmlns="http://www.w3.org/2000/svg">
<path d="M42.6705 24.1589L34.5 20.0714V10.4999C34.4999 10.2214 34.4222 9.94849 34.2757 9.71164C34.1292 9.4748 33.9196 9.28342 33.6705 9.15893L24.6705 4.65893C24.4623 4.55489 24.2327 4.50073 24 4.50073C23.7673 4.50073 23.5377 4.55489 23.3295 4.65893L14.3295 9.15893C14.0804 9.28342 13.8708 9.4748 13.7243 9.71164C13.5778 9.94849 13.5001 10.2214 13.5 10.4999V20.0729L5.3295 24.1574C5.08015 24.282 4.87045 24.4736 4.72393 24.7108C4.57741 24.9479 4.49987 25.2212 4.5 25.4999V35.9999C4.49987 36.2787 4.57741 36.5519 4.72393 36.7891C4.87045 37.0262 5.08015 37.2178 5.3295 37.3424L14.3295 41.8424C14.5377 41.9465 14.7673 42.0006 15 42.0006C15.2327 42.0006 15.4623 41.9465 15.6705 41.8424L24 37.6769L32.3295 41.8424C32.5377 41.9465 32.7673 42.0006 33 42.0006C33.2327 42.0006 33.4623 41.9465 33.6705 41.8424L42.6705 37.3424C42.9198 37.2178 43.1295 37.0262 43.2761 36.7891C43.4226 36.5519 43.5001 36.2787 43.5 35.9999V25.4999C43.5001 25.2212 43.4226 24.9479 43.2761 24.7108C43.1295 24.4736 42.9198 24.282 42.6705 24.1574M31.5 20.0714L25.5 23.0714V15.9254L31.5 12.9254V20.0714ZM24 7.67543L29.646 10.4999L24 13.3229L18.354 10.4999L24 7.67543ZM16.5 12.9254L22.5 15.9254V23.0714L16.5 20.0714V12.9254ZM13.5 38.0729L7.5 35.0729V27.9269L13.5 30.9269V38.0729ZM15 28.3229L9.354 25.4999L15 22.6769L20.646 25.4999L15 28.3229ZM16.5 30.9269L22.5 27.9269V35.0729L16.5 38.0729V30.9269ZM31.5 38.0729L25.5 35.0729V27.9269L31.5 30.9269V38.0729ZM33 28.3229L27.354 25.4999L33 22.6769L38.646 25.4999L33 28.3229ZM40.5 35.0729L34.5 38.0729V30.9269L40.5 27.9269V35.0729Z" fill="#800000"/>
</svg>
