<?xml version="1.0" encoding="UTF-8"?>
<svg id="Layer_1" data-name="Layer 1" xmlns="http://www.w3.org/2000/svg" viewBox="0 0 490.12 477.61">
  <defs>
    <style>
      .cls-1 {
        fill: #002a3a;
      }
    </style>
  </defs>
  <path class="cls-1" d="M432.76,127.61c-4.34,0-8.44,1-12.1,2.77l-56.34-55.97c3.51-4.64,5.59-10.42,5.59-16.69,0-15.31-12.41-27.72-27.72-27.72-13.49,0-24.72,9.63-27.2,22.39l-126.58.8c-2.16-13.16-13.58-23.2-27.35-23.2-15.31,0-27.72,12.41-27.72,27.72,0,3.92.82,7.64,2.28,11.02l-59.38,39.84c-4.91-4.42-11.4-7.1-18.53-7.1-15.31,0-27.72,12.41-27.72,27.72s12.41,27.72,27.72,27.72c12.5,0,23.07-8.28,26.52-19.65l162.17,1.99c1.58,6.42,5.39,11.96,10.56,15.75l-27.69,52.57,9.66,4.49,27.67-52.54c2.15.53,4.39.82,6.71.82,12.29,0,22.7-8,26.34-19.07l105.41,15.48c.49,9.62,5.89,17.94,13.74,22.52l-18.73,32.79,9.91,3.91,18.97-33.2c1.24.17,2.51.27,3.8.27,15.31,0,27.72-12.41,27.72-27.72s-12.41-27.72-27.72-27.72ZM85.32,126.63c-.31-3.4-1.23-6.61-2.66-9.54l59-39.58c4.51,4.42,10.51,7.31,17.19,7.84l4.37,42.24-77.9-.96ZM245.9,128.6l-72.01-.88-4.51-43.54c4.44-1.39,8.39-3.87,11.55-7.12l67.23,43.96c-1.1,2.37-1.87,4.91-2.26,7.58ZM291.23,111.47c-4.83-4.09-11.07-6.56-17.9-6.56-7.31,0-13.96,2.83-18.91,7.46l-67.66-44.24c.56-1.37,1.01-2.8,1.34-4.27l126.89-.8c.92,4.72,3.04,9.01,6.03,12.55l-29.79,35.87ZM406.59,146.21l-105.61-15.51c-.27-3.91-1.35-7.59-3.07-10.88l31.25-37.63c3.89,2.07,8.32,3.25,13.03,3.25,5.18,0,10.03-1.43,14.18-3.9l55.7,55.34c-2.4,2.69-4.28,5.85-5.5,9.33Z"/>
  <g>
    <path class="cls-1" d="M31.37,229.43h56.89l60.09,146.59h2.56l60.09-146.59h56.89v218.18h-44.74v-142.01h-1.81l-56.46,140.94h-30.47l-56.46-141.48h-1.81v142.54H31.37v-218.18Z"/>
    <path class="cls-1" d="M376.17,450.59c-15.91,0-30.06-2.75-42.45-8.26-12.39-5.5-22.16-13.1-29.3-22.8-7.14-9.7-10.81-20.9-11.03-33.61h46.45c.28,5.33,2.04,10,5.27,14.01,3.23,4.01,7.55,7.12,12.94,9.32,5.4,2.2,11.47,3.3,18.22,3.3s13.25-1.24,18.64-3.73c5.4-2.49,9.62-5.93,12.68-10.33,3.05-4.4,4.58-9.48,4.58-15.23s-1.62-10.99-4.85-15.5c-3.23-4.51-7.85-8.04-13.85-10.6-6-2.56-13.12-3.83-21.36-3.83h-20.35v-33.88h20.35c6.96,0,13.12-1.21,18.48-3.62,5.36-2.41,9.53-5.77,12.52-10.07,2.98-4.3,4.47-9.32,4.47-15.08s-1.3-10.28-3.89-14.43c-2.59-4.16-6.22-7.4-10.87-9.75-4.65-2.34-10.07-3.52-16.25-3.52s-11.97,1.12-17.15,3.36c-5.19,2.24-9.34,5.42-12.46,9.53-3.13,4.12-4.79,8.95-5.01,14.49h-44.21c.21-12.57,3.8-23.65,10.76-33.24,6.96-9.59,16.35-17.1,28.18-22.53,11.83-5.43,25.2-8.15,40.11-8.15s28.23,2.73,39.52,8.2c11.29,5.47,20.08,12.84,26.37,22.11,6.29,9.27,9.39,19.66,9.32,31.16.07,12.22-3.71,22.41-11.35,30.58-7.63,8.17-17.56,13.35-29.78,15.55v1.71c16.05,2.06,28.28,7.62,36.7,16.67,8.42,9.05,12.59,20.37,12.52,33.93.07,12.43-3.5,23.47-10.71,33.13-7.21,9.66-17.14,17.26-29.78,22.8-12.64,5.54-27.13,8.31-43.47,8.31Z"/>
  </g>
</svg>
