<svg width="56" height="56" viewBox="0 0 56 56" fill="none" xmlns="http://www.w3.org/2000/svg">
<rect width="56" height="56" rx="4" fill="#F1F1F1"/>
<rect x="1" y="1" width="54" height="54" rx="3" stroke="#FEFEFE" stroke-opacity="0.933333" stroke-width="2"/>
<path d="M39.7942 29.7876C39.7973 30.2936 39.6436 30.7882 39.3541 31.2033C39.0646 31.6184 38.6536 31.9335 38.1776 32.1054L30.1643 35.0532L27.2166 43.0602C27.042 43.5345 26.7262 43.9437 26.3117 44.2328C25.8972 44.5219 25.404 44.6769 24.8987 44.6769C24.3934 44.6769 23.9002 44.5219 23.4857 44.2328C23.0712 43.9437 22.7554 43.5345 22.5808 43.0602L19.6253 35.0625L11.6167 32.1147C11.1425 31.9402 10.7332 31.6243 10.4441 31.2099C10.155 30.7954 10 30.3022 10 29.7969C10 29.2915 10.155 28.7983 10.4441 28.3839C10.7332 27.9694 11.1425 27.6536 11.6167 27.479L19.63 24.5312L22.5777 16.5242C22.7523 16.05 23.0681 15.6407 23.4826 15.3516C23.8971 15.0625 24.3903 14.9075 24.8956 14.9075C25.4009 14.9075 25.8941 15.0625 26.3086 15.3516C26.7231 15.6407 27.0389 16.05 27.2135 16.5242L30.1612 24.5374L38.1683 27.4852C38.6435 27.6547 39.0548 27.9668 39.3458 28.3789C39.6368 28.791 39.7934 29.283 39.7942 29.7876ZM31.1061 14.8936H33.5884V17.3759C33.5884 17.7051 33.7191 18.0208 33.9519 18.2536C34.1847 18.4863 34.5004 18.6171 34.8295 18.6171C35.1587 18.6171 35.4744 18.4863 35.7072 18.2536C35.9399 18.0208 36.0707 17.7051 36.0707 17.3759V14.8936H38.553C38.8822 14.8936 39.1979 14.7628 39.4307 14.5301C39.6634 14.2973 39.7942 13.9816 39.7942 13.6525C39.7942 13.3233 39.6634 13.0076 39.4307 12.7748C39.1979 12.5421 38.8822 12.4113 38.553 12.4113H36.0707V9.92897C36.0707 9.59979 35.9399 9.2841 35.7072 9.05133C35.4744 8.81857 35.1587 8.68781 34.8295 8.68781C34.5004 8.68781 34.1847 8.81857 33.9519 9.05133C33.7191 9.2841 33.5884 9.59979 33.5884 9.92897V12.4113H31.1061C30.7769 12.4113 30.4612 12.5421 30.2284 12.7748C29.9957 13.0076 29.8649 13.3233 29.8649 13.6525C29.8649 13.9816 29.9957 14.2973 30.2284 14.5301C30.4612 14.7628 30.7769 14.8936 31.1061 14.8936ZM44.7588 19.8583H43.5177V18.6171C43.5177 18.2879 43.3869 17.9722 43.1542 17.7395C42.9214 17.5067 42.6057 17.3759 42.2765 17.3759C41.9473 17.3759 41.6316 17.5067 41.3989 17.7395C41.1661 17.9722 41.0354 18.2879 41.0354 18.6171V19.8583H39.7942C39.465 19.8583 39.1493 19.989 38.9166 20.2218C38.6838 20.4546 38.553 20.7702 38.553 21.0994C38.553 21.4286 38.6838 21.7443 38.9166 21.9771C39.1493 22.2098 39.465 22.3406 39.7942 22.3406H41.0354V23.5817C41.0354 23.9109 41.1661 24.2266 41.3989 24.4594C41.6316 24.6921 41.9473 24.8229 42.2765 24.8229C42.6057 24.8229 42.9214 24.6921 43.1542 24.4594C43.3869 24.2266 43.5177 23.9109 43.5177 23.5817V22.3406H44.7588C45.088 22.3406 45.4037 22.2098 45.6365 21.9771C45.8692 21.7443 46 21.4286 46 21.0994C46 20.7702 45.8692 20.4546 45.6365 20.2218C45.4037 19.989 45.088 19.8583 44.7588 19.8583Z" fill="#800000"/>
</svg>
