<?xml version="1.0" encoding="UTF-8" standalone="no"?>
<svg
   width="16"
   height="16"
   viewBox="0 0 16 16"
   fill="none"
   version="1.1"
   id="svg1"
   sodipodi:docname="ai_spark.svg"
   inkscape:version="1.3.2 (091e20e, 2023-11-25)"
   xmlns:inkscape="http://www.inkscape.org/namespaces/inkscape"
   xmlns:sodipodi="http://sodipodi.sourceforge.net/DTD/sodipodi-0.dtd"
   xmlns="http://www.w3.org/2000/svg"
   xmlns:svg="http://www.w3.org/2000/svg">
  <defs
     id="defs1" />
  <sodipodi:namedview
     id="namedview1"
     pagecolor="#ffffff"
     bordercolor="#000000"
     borderopacity="0.25"
     inkscape:showpageshadow="2"
     inkscape:pageopacity="0.0"
     inkscape:pagecheckerboard="0"
     inkscape:deskcolor="#d1d1d1"
     inkscape:zoom="14.75"
     inkscape:cx="17.423729"
     inkscape:cy="7.9661017"
     inkscape:window-width="1312"
     inkscape:window-height="754"
     inkscape:window-x="491"
     inkscape:window-y="57"
     inkscape:window-maximized="0"
     inkscape:current-layer="svg1" />
  <path
     d="m 12.873644,9.3308637 c 0.0013,0.2062006 -0.06143,0.4077347 -0.179329,0.5768869 -0.117993,0.1691524 -0.285495,0.2975064 -0.479402,0.3675504 L 8.9496983,11.47642 7.7485711,14.739085 c -0.071136,0.193265 -0.1998196,0.360033 -0.368715,0.477844 -0.1688863,0.117811 -0.3698428,0.180979 -0.5757592,0.180979 -0.2059073,0 -0.4068637,-0.06317 -0.5757592,-0.180979 C 6.0594514,15.099118 5.9307582,14.93235 5.8596318,14.739085 L 4.6553416,11.48027 1.3920523,10.279152 C 1.1988145,10.208007 1.0320451,10.079287 0.91424551,9.9104093 0.79644571,9.741523 0.73328481,9.5405666 0.73328481,9.3346501 c 0,-0.2059072 0.063161,-0.4068637 0.1809607,-0.5757591 C 1.0320451,8.5900047 1.1988145,8.4613115 1.3920523,8.3901851 L 4.6572303,7.1890487 5.8583666,3.9264012 C 5.929493,3.7331643 6.0581862,3.5663958 6.2270725,3.4485944 6.395968,3.330793 6.5969244,3.2676337 6.8028317,3.2676337 c 0.2059164,0 0.4068729,0.063159 0.5757592,0.1809607 0.1688954,0.1178014 0.2975794,0.2845699 0.368715,0.4778068 l 1.2011272,3.2651779 3.2626299,1.2011364 c 0.193631,0.069045 0.361225,0.1962348 0.47986,0.3641677 0.118544,0.1679236 0.182355,0.3683941 0.182721,0.5739805 z M 9.3334308,3.2619861 h 1.0114572 v 1.011475 c 0,0.1341299 0.05327,0.2627681 0.148157,0.3576125 0.0948,0.094844 0.223519,0.1481296 0.357649,0.1481296 0.13413,0 0.262759,-0.053285 0.357558,-0.1481296 0.09489,-0.094844 0.148157,-0.2234826 0.148157,-0.3576125 v -1.011475 h 1.011429 c 0.13413,0 0.262759,-0.053285 0.357649,-0.1481296 0.0948,-0.094844 0.148157,-0.2234826 0.148157,-0.3576125 0,-0.1341299 -0.05336,-0.2627681 -0.148157,-0.3576125 -0.09489,-0.094844 -0.223519,-0.1481296 -0.357649,-0.1481296 H 11.356409 V 1.2390242 c 0,-0.1341299 -0.05327,-0.26276719 -0.148157,-0.35761159 -0.0948,-0.0948447 -0.223428,-0.1481278 -0.357558,-0.1481278 -0.13413,0 -0.26285,0.0532831 -0.357649,0.1481278 -0.09489,0.0948444 -0.148157,0.22348169 -0.148157,0.35761159 V 2.2505019 H 9.3334308 c -0.1341299,0 -0.2627681,0.053285 -0.3576125,0.1481296 -0.094844,0.094844 -0.1481296,0.2234826 -0.1481296,0.3576125 0,0.1341299 0.053285,0.2627681 0.1481296,0.3576125 0.094844,0.094844 0.2234826,0.1481296 0.3576125,0.1481296 z M 14.896594,5.2849453 H 14.390788 V 4.7792032 c 0,-0.1341299 -0.05327,-0.262768 -0.148065,-0.3576125 -0.09489,-0.094844 -0.22352,-0.1481296 -0.35765,-0.1481296 -0.134129,0 -0.262758,0.053285 -0.357557,0.1481296 -0.09489,0.094844 -0.148157,0.2234826 -0.148157,0.3576125 v 0.5057421 h -0.505715 c -0.13413,0 -0.262759,0.053285 -0.357649,0.1481205 -0.0948,0.094854 -0.148157,0.2234825 -0.148157,0.3576124 0,0.1341391 0.05336,0.2627681 0.148157,0.3576125 0.09489,0.094844 0.223519,0.1481296 0.357649,0.1481296 h 0.505715 v 0.5057421 c 0,0.1341299 0.05327,0.2627681 0.148157,0.3576125 0.0948,0.094844 0.223428,0.1481296 0.357557,0.1481296 0.13413,0 0.262759,-0.053285 0.35765,-0.1481296 0.0948,-0.094844 0.148065,-0.2234826 0.148065,-0.3576125 V 6.2964203 h 0.505806 c 0.13413,0 0.262759,-0.053285 0.357558,-0.1481296 0.09489,-0.094844 0.148157,-0.2234734 0.148157,-0.3576125 0,-0.1341299 -0.05327,-0.2627589 -0.148157,-0.3576124 -0.0948,-0.094835 -0.223428,-0.1481205 -0.357558,-0.1481205 z"
     fill="white"
     id="path1"
     style="fill:#007ea7;fill-opacity:0.905882;stroke:#001825;stroke-width:0.275044;stroke-linejoin:bevel;stroke-dasharray:none;stroke-opacity:0.847059;paint-order:stroke fill markers" />
</svg>
