<?xml version="1.0" encoding="UTF-8" standalone="no"?>
<svg
   width="16"
   height="16"
   viewBox="0 0 16 16"
   fill="none"
   version="1.1"
   id="svg1"
   xmlns="http://www.w3.org/2000/svg"
   xmlns:svg="http://www.w3.org/2000/svg">
  <defs
     id="defs1" />
  <path
     d="M13.2419 9.37767C13.2433 9.60258 13.1749 9.8224 13.0463 10.0069C12.9176 10.1914 12.7349 10.3314 12.5234 10.4078L8.96192 11.7179L7.65181 15.2766C7.57422 15.4874 7.43386 15.6693 7.24964 15.7978C7.06543 15.9263 6.84624 15.9952 6.62164 15.9952C6.39705 15.9952 6.17786 15.9263 5.99364 15.7978C5.80943 15.6693 5.66906 15.4874 5.59148 15.2766L4.27792 11.7221L0.71854 10.412C0.507769 10.3344 0.325868 10.194 0.19738 10.0098C0.0688917 9.82559 0 9.6064 0 9.3818C0 9.15721 0.0688917 8.93802 0.19738 8.7538C0.325868 8.56959 0.507769 8.42922 0.71854 8.35164L4.27998 7.04152L5.5901 3.48284C5.66768 3.27207 5.80805 3.09017 5.99226 2.96168C6.17648 2.83319 6.39567 2.7643 6.62026 2.7643C6.84486 2.7643 7.06405 2.83319 7.24826 2.96168C7.43248 3.09017 7.57284 3.27207 7.65043 3.48284L8.96054 7.04428L12.5192 8.3544C12.7304 8.42971 12.9132 8.56844 13.0426 8.75161C13.1719 8.93477 13.2415 9.15343 13.2419 9.37767ZM9.38047 2.75814H10.4837V3.86139C10.4837 4.00769 10.5418 4.148 10.6453 4.25145C10.7487 4.3549 10.8891 4.41302 11.0354 4.41302C11.1817 4.41302 11.322 4.3549 11.4254 4.25145C11.5289 4.148 11.587 4.00769 11.587 3.86139V2.75814H12.6902C12.8365 2.75814 12.9768 2.70002 13.0803 2.59657C13.1837 2.49312 13.2419 2.35281 13.2419 2.20651C13.2419 2.06021 13.1837 1.9199 13.0803 1.81645C12.9768 1.713 12.8365 1.65488 12.6902 1.65488H11.587V0.551627C11.587 0.405327 11.5289 0.265018 11.4254 0.161568C11.322 0.0581177 11.1817 0 11.0354 0C10.8891 0 10.7487 0.0581177 10.6453 0.161568C10.5418 0.265018 10.4837 0.405327 10.4837 0.551627V1.65488H9.38047C9.23417 1.65488 9.09386 1.713 8.99041 1.81645C8.88696 1.9199 8.82884 2.06021 8.82884 2.20651C8.82884 2.35281 8.88696 2.49312 8.99041 2.59657C9.09386 2.70002 9.23417 2.75814 9.38047 2.75814ZM15.4484 4.96465H14.8967V4.41302C14.8967 4.26672 14.8386 4.12641 14.7352 4.02296C14.6317 3.91951 14.4914 3.86139 14.3451 3.86139C14.1988 3.86139 14.0585 3.91951 13.9551 4.02296C13.8516 4.12641 13.7935 4.26672 13.7935 4.41302V4.96465H13.2419C13.0956 4.96465 12.9553 5.02277 12.8518 5.12621C12.7484 5.22967 12.6902 5.36997 12.6902 5.51627C12.6902 5.66258 12.7484 5.80288 12.8518 5.90633C12.9553 6.00978 13.0956 6.0679 13.2419 6.0679H13.7935V6.61953C13.7935 6.76583 13.8516 6.90614 13.9551 7.00959C14.0585 7.11304 14.1988 7.17116 14.3451 7.17116C14.4914 7.17116 14.6317 7.11304 14.7352 7.00959C14.8386 6.90614 14.8967 6.76583 14.8967 6.61953V6.0679H15.4484C15.5947 6.0679 15.735 6.00978 15.8384 5.90633C15.9419 5.80288 16 5.66258 16 5.51627C16 5.36997 15.9419 5.22967 15.8384 5.12621C15.735 5.02277 15.5947 4.96465 15.4484 4.96465Z"
     fill="white"
     id="path1"
     style="fill:#007ea7;fill-opacity:0.90588236" />
</svg>
